<svg xmlns="http://www.w3.org/2000/svg" xmlns:xlink="http://www.w3.org/1999/xlink" width="500" zoomAndPan="magnify" viewBox="0 0 375 374.999991" height="500" preserveAspectRatio="xMidYMid meet" version="1.0"><rect x="-37.5" width="450" fill="#ffffff" y="-37.499999" height="449.999989" fill-opacity="1"/><rect x="-37.5" width="450" fill="#ffffff" y="-37.499999" height="449.999989" fill-opacity="1"/><path fill="#100f0d" d="M 41.25 171.875 L 41.25 137.5 L 75.625 137.5 L 75.625 171.875 Z M 75.625 123.75 L 41.25 123.75 C 33.675781 123.75 27.5 129.925781 27.5 137.5 L 27.5 171.875 C 27.5 179.449219 33.675781 185.625 41.25 185.625 L 75.625 185.625 C 83.199219 185.625 89.375 179.449219 89.375 171.875 L 89.375 137.5 C 89.375 129.925781 83.199219 123.75 75.625 123.75 " fill-opacity="1" fill-rule="nonzero"/><path fill="#100f0d" d="M 116.875 171.875 L 116.875 137.5 L 151.25 137.5 L 151.25 171.875 Z M 151.25 123.75 L 116.875 123.75 C 109.300781 123.75 103.125 129.925781 103.125 137.5 L 103.125 171.875 C 103.125 179.449219 109.300781 185.625 116.875 185.625 L 151.25 185.625 C 158.824219 185.625 165 179.449219 165 171.875 L 165 137.5 C 165 129.925781 158.824219 123.75 151.25 123.75 " fill-opacity="1" fill-rule="nonzero"/><path fill="#100f0d" d="M 41.25 247.5 L 41.25 213.125 L 75.625 213.125 L 75.625 247.5 Z M 75.625 199.375 L 41.25 199.375 C 33.675781 199.375 27.5 205.550781 27.5 213.125 L 27.5 247.5 C 27.5 255.074219 33.675781 261.25 41.25 261.25 L 75.625 261.25 C 83.199219 261.25 89.375 255.074219 89.375 247.5 L 89.375 213.125 C 89.375 205.550781 83.199219 199.375 75.625 199.375 " fill-opacity="1" fill-rule="nonzero"/><path fill="#100f0d" d="M 116.875 247.5 L 116.875 213.125 L 151.25 213.125 L 151.25 247.5 Z M 151.25 199.375 L 116.875 199.375 C 109.300781 199.375 103.125 205.550781 103.125 213.125 L 103.125 247.5 C 103.125 255.074219 109.300781 261.25 116.875 261.25 L 151.25 261.25 C 158.824219 261.25 165 255.074219 165 247.5 L 165 213.125 C 165 205.550781 158.824219 199.375 151.25 199.375 " fill-opacity="1" fill-rule="nonzero"/><path fill="#100f0d" d="M 41.25 323.125 L 41.25 288.75 L 75.625 288.75 L 75.625 323.125 Z M 75.625 275 L 41.25 275 C 33.675781 275 27.5 281.175781 27.5 288.75 L 27.5 323.125 C 27.5 330.699219 33.675781 336.875 41.25 336.875 L 75.625 336.875 C 83.199219 336.875 89.375 330.699219 89.375 323.125 L 89.375 288.75 C 89.375 281.175781 83.199219 275 75.625 275 " fill-opacity="1" fill-rule="nonzero"/><path fill="#100f0d" d="M 116.875 323.125 L 116.875 288.75 L 151.25 288.75 L 151.25 323.125 Z M 151.25 275 L 116.875 275 C 109.300781 275 103.125 281.175781 103.125 288.75 L 103.125 323.125 C 103.125 330.699219 109.300781 336.875 116.875 336.875 L 151.25 336.875 C 158.824219 336.875 165 330.699219 165 323.125 L 165 288.75 C 165 281.175781 158.824219 275 151.25 275 " fill-opacity="1" fill-rule="nonzero"/><path fill="#100f0d" d="M 343.75 371.25 L 343.75 343.75 L 371.25 343.75 L 371.25 371.25 Z M 261.25 343.75 L 288.75 343.75 L 288.75 371.25 L 261.25 371.25 Z M 288.75 261.25 L 288.75 288.75 L 261.25 288.75 L 261.25 261.25 Z M 343.75 302.5 L 371.25 302.5 L 371.25 330 L 343.75 330 Z M 302.5 288.75 L 302.5 261.25 L 330 261.25 L 330 288.75 Z M 288.75 330 L 261.25 330 L 261.25 302.5 L 288.75 302.5 Z M 330 343.75 L 330 371.25 L 302.5 371.25 L 302.5 343.75 Z M 302.5 330 L 302.5 302.5 L 330 302.5 L 330 330 Z M 371.25 288.75 L 343.75 288.75 L 343.75 261.25 L 371.25 261.25 Z M 371.25 247.5 L 261.25 247.5 C 253.675781 247.5 247.5 253.675781 247.5 261.25 L 247.5 371.25 C 247.5 378.824219 253.675781 385 261.25 385 L 371.25 385 C 378.824219 385 385 378.824219 385 371.25 L 385 261.25 C 385 253.675781 378.824219 247.5 371.25 247.5 " fill-opacity="1" fill-rule="nonzero"/><path fill="#100f0d" d="M 398.75 391.875 C 398.75 395.660156 395.660156 398.75 391.875 398.75 L 240.625 398.75 C 236.839844 398.75 233.75 395.660156 233.75 391.875 L 233.75 158.125 C 233.75 154.339844 236.839844 151.25 240.625 151.25 L 391.875 151.25 C 395.660156 151.25 398.75 154.339844 398.75 158.125 Z M 192.5 123.75 C 184.925781 123.75 178.75 129.925781 178.75 137.5 L 178.75 171.875 C 178.75 179.449219 184.925781 185.625 192.5 185.625 L 220 185.625 L 220 199.375 L 192.5 199.375 C 184.925781 199.375 178.75 205.550781 178.75 213.125 L 178.75 247.5 C 178.75 255.074219 184.925781 261.25 192.5 261.25 L 220 261.25 L 220 275 L 192.5 275 C 184.925781 275 178.75 281.175781 178.75 288.75 L 178.75 323.125 C 178.75 330.699219 184.925781 336.875 192.5 336.875 L 220 336.875 L 220 350.625 L 20.625 350.625 C 16.839844 350.625 13.75 347.535156 13.75 343.75 L 13.75 110 L 330 110 L 330 137.5 L 316.25 137.5 C 316.25 129.925781 310.074219 123.75 302.5 123.75 L 268.125 123.75 C 260.550781 123.75 254.375 129.925781 254.375 137.5 L 240.625 137.5 C 240.625 129.925781 234.449219 123.75 226.875 123.75 Z M 226.875 142.871094 C 222.683594 146.65625 220 152.082031 220 158.125 L 220 171.875 L 192.5 171.875 L 192.5 137.5 L 226.875 137.5 Z M 220 247.5 L 192.5 247.5 L 192.5 213.125 L 220 213.125 Z M 220 323.125 L 192.5 323.125 L 192.5 288.75 L 220 288.75 Z M 13.75 55 C 13.75 51.214844 16.839844 48.125 20.625 48.125 L 75.625 48.125 L 75.625 61.875 C 75.625 73.207031 84.917969 82.5 96.25 82.5 C 107.582031 82.5 116.875 73.207031 116.875 61.875 L 116.875 48.125 L 226.875 48.125 L 226.875 61.875 C 226.875 73.207031 236.167969 82.5 247.5 82.5 C 258.832031 82.5 268.125 73.207031 268.125 61.875 L 268.125 48.125 L 323.125 48.125 C 326.910156 48.125 330 51.214844 330 55 L 330 96.25 L 13.75 96.25 Z M 89.375 20.625 C 89.375 16.839844 92.464844 13.75 96.25 13.75 C 100.035156 13.75 103.125 16.839844 103.125 20.625 L 103.125 61.875 C 103.125 65.660156 100.035156 68.75 96.25 68.75 C 92.464844 68.75 89.375 65.660156 89.375 61.875 Z M 240.625 20.625 C 240.625 16.839844 243.714844 13.75 247.5 13.75 C 251.285156 13.75 254.375 16.839844 254.375 20.625 L 254.375 61.875 C 254.375 65.660156 251.285156 68.75 247.5 68.75 C 243.714844 68.75 240.625 65.660156 240.625 61.875 Z M 391.875 137.5 L 343.75 137.5 L 343.75 55 C 343.75 43.667969 334.457031 34.375 323.125 34.375 L 268.125 34.375 L 268.125 20.625 C 268.125 9.292969 258.832031 0 247.5 0 C 236.167969 0 226.875 9.292969 226.875 20.625 L 226.875 34.375 L 116.875 34.375 L 116.875 20.625 C 116.875 9.292969 107.582031 0 96.25 0 C 84.917969 0 75.625 9.292969 75.625 20.625 L 75.625 34.375 L 20.625 34.375 C 9.292969 34.375 0 43.667969 0 55 L 0 343.75 C 0 355.082031 9.292969 364.375 20.625 364.375 L 220 364.375 L 220 391.875 C 220 403.207031 229.292969 412.5 240.625 412.5 L 391.875 412.5 C 403.207031 412.5 412.5 403.207031 412.5 391.875 L 412.5 158.125 C 412.5 146.792969 403.207031 137.5 391.875 137.5 " fill-opacity="1" fill-rule="nonzero"/><path fill="#100f0d" d="M 371.25 220 L 261.25 220 L 261.25 178.75 L 371.25 178.75 Z M 371.25 165 L 261.25 165 C 253.675781 165 247.5 171.175781 247.5 178.75 L 247.5 220 C 247.5 227.574219 253.675781 233.75 261.25 233.75 L 371.25 233.75 C 378.824219 233.75 385 227.574219 385 220 L 385 178.75 C 385 171.175781 378.824219 165 371.25 165 " fill-opacity="1" fill-rule="nonzero"/><path fill="#100f0d" d="M 350.625 192.5 L 336.875 192.5 L 336.875 206.25 L 350.625 206.25 L 350.625 192.5 " fill-opacity="1" fill-rule="nonzero"/><path fill="#100f0d" d="M 323.125 192.5 L 309.375 192.5 L 309.375 206.25 L 323.125 206.25 L 323.125 192.5 " fill-opacity="1" fill-rule="nonzero"/><path fill="#100f0d" d="M 295.625 192.5 L 281.875 192.5 L 281.875 206.25 L 295.625 206.25 L 295.625 192.5 " fill-opacity="1" fill-rule="nonzero"/></svg>